<svg width="27" height="27" viewBox="0 0 27 27" fill="none" xmlns="http://www.w3.org/2000/svg">
    <rect width="26.8252" height="26.8252" rx="3" fill="#434343"/>
    <path d="M8.34629 20.6853C7.89995 20.6853 7.50766 20.3895 7.38487 19.9604L3.7952 7.41497C3.61239 6.77607 4.09208 6.13988 4.75662 6.13988H5.99998C6.46299 6.13988 6.86545 6.45773 6.97275 6.90813L9.1974 16.2464H9.31814L11.7784 6.88568C11.8939 6.44622 12.2911 6.13988 12.7455 6.13988H14.0787C14.5336 6.13988 14.9311 6.4468 15.0462 6.88682L17.5 16.2677H17.6278L20.0355 6.13988H22.0686C22.7331 6.13988 23.2128 6.77607 23.03 7.41497L19.4403 19.9604C19.3176 20.3895 18.9253 20.6853 18.4789 20.6853H16.986C16.5415 20.6853 16.1503 20.3918 16.0259 19.965L13.4659 11.1754H13.3522L10.7989 19.9643C10.6748 20.3915 10.2835 20.6853 9.83862 20.6853H8.34629Z" fill="white"/>
</svg>
